<?xml version="1.0" standalone="no"?>
<!DOCTYPE svg PUBLIC "-//W3C//DTD SVG 20010904//EN"
 "http://www.w3.org/TR/2001/REC-SVG-20010904/DTD/svg10.dtd">
<svg version="1.0" xmlns="http://www.w3.org/2000/svg"
 width="608.000000pt" height="608.000000pt" viewBox="0 0 608.000000 608.000000"
 preserveAspectRatio="xMidYMid meet">
<metadata>
Created by potrace 1.11, written by Peter Selinger 2001-2013
</metadata>
<g transform="translate(0.000000,608.000000) scale(0.100000,-0.100000)"
fill="#000000" stroke="none">
<path d="M1625 5800 c-4 -6 -11 -8 -16 -5 -5 4 -13 -5 -19 -19 -5 -14 -13 -26
-18 -26 -19 0 -5 -87 23 -140 30 -56 84 -132 98 -138 4 -2 7 -8 7 -13 0 -5 14
-31 31 -59 20 -33 37 -50 51 -50 11 0 18 -5 15 -12 -2 -7 1 -24 8 -38 32 -61
65 -138 65 -148 0 -7 5 -12 10 -12 6 0 9 -3 8 -7 -2 -11 24 -63 32 -63 7 0 42
-67 104 -201 19 -42 50 -91 68 -110 19 -19 49 -55 67 -81 17 -27 35 -48 39
-48 4 0 15 -14 24 -30 9 -17 24 -30 33 -30 8 0 15 -4 15 -9 0 -5 16 -19 35
-31 19 -11 41 -34 49 -51 13 -27 13 -30 -5 -39 -25 -14 -24 -30 1 -30 13 0 20
-7 20 -18 0 -10 15 -35 33 -56 28 -32 45 -42 80 -45 5 -1 6 -5 3 -10 -7 -10
-25 -9 -44 3 -21 13 -25 0 -7 -27 19 -30 66 -51 97 -45 21 4 23 0 25 -36 3
-55 7 -89 14 -101 8 -12 22 -64 24 -87 2 -10 3 -19 4 -20 2 -3 4 -14 15 -78 3
-14 10 -52 17 -85 15 -73 18 -215 6 -232 -7 -9 -4 -13 9 -13 11 0 15 -3 9 -8
-6 -4 -11 -18 -11 -32 -1 -43 -12 -114 -22 -140 -7 -20 -4 -35 14 -71 14 -28
23 -63 22 -90 0 -24 4 -45 10 -47 7 -2 8 -12 3 -25 -5 -12 -7 -43 -5 -69 1
-27 -1 -48 -6 -48 -5 0 -12 -10 -16 -22 -4 -13 -10 -25 -13 -28 -15 -11 -60
-120 -65 -157 -10 -74 -18 -108 -26 -117 -5 -5 -6 -15 -3 -23 4 -11 8 -10 18
4 23 31 29 5 9 -44 -10 -27 -17 -52 -16 -57 2 -4 -7 -46 -18 -92 -34 -137 -42
-184 -29 -184 5 0 9 11 9 25 0 28 20 75 32 75 4 0 8 -7 8 -15 0 -8 5 -15 10
-15 6 0 10 5 10 10 0 6 7 10 16 10 16 0 16 -12 0 -51 -5 -10 -2 -16 8 -16 8 0
20 13 26 28 7 15 18 30 26 33 11 4 12 2 4 -14 -13 -23 -13 -43 -1 -35 5 3 21
0 35 -6 23 -11 26 -18 27 -68 2 -125 13 -232 26 -253 2 -5 7 -27 9 -50 11 -87
11 -133 1 -153 -6 -11 -11 -33 -12 -50 -2 -30 -13 -66 -24 -75 -4 -3 -24 -31
-46 -64 -22 -32 -46 -61 -52 -63 -7 -3 -13 -10 -13 -15 0 -6 -14 -31 -31 -56
-49 -72 -46 -122 9 -161 l30 -21 59 80 c32 43 64 79 71 80 7 0 11 -4 7 -9 -8
-13 -7 -119 1 -236 12 -175 5 -479 -12 -507 -6 -10 -14 -57 -18 -113 -2 -23
-8 -50 -14 -62 -7 -12 -9 -29 -6 -38 4 -9 0 -23 -9 -33 -8 -9 -22 -32 -31 -49
-9 -18 -22 -33 -29 -33 -16 0 -80 -65 -83 -85 -1 -8 17 -23 43 -36 39 -19 56
-21 134 -16 65 4 100 11 127 27 20 11 58 30 84 42 54 25 64 48 53 126 -6 45
-4 50 30 87 28 31 35 46 32 70 -4 32 -26 85 -36 85 -8 0 -5 171 3 230 7 48 16
102 23 135 2 11 6 34 9 50 3 17 8 37 11 45 3 8 8 26 10 40 2 14 8 38 13 54 6
16 10 40 10 54 0 14 2 23 5 20 18 -18 22 -428 6 -517 -7 -35 -10 -70 -7 -78 3
-8 1 -23 -4 -33 -23 -42 -17 -123 10 -150 3 -3 10 -14 16 -24 6 -11 27 -29 48
-39 42 -22 87 -83 90 -122 1 -19 11 -30 42 -45 22 -11 52 -21 67 -22 15 -1 27
-6 27 -11 0 -4 4 -5 10 -2 5 3 47 6 92 6 99 1 158 21 158 55 0 31 -35 71 -75
85 -19 7 -35 16 -35 20 0 4 -11 10 -25 13 -21 5 -67 66 -50 66 4 0 -1 10 -9
22 -14 19 -14 23 0 33 14 9 13 13 -3 35 -25 34 -45 74 -42 86 2 5 -3 20 -11
34 -14 26 -15 57 -6 150 3 30 8 89 11 129 4 41 8 78 11 82 2 4 6 49 9 100 3
52 10 110 15 129 5 19 12 55 15 80 8 51 43 163 74 231 11 25 23 57 25 70 3 13
5 24 6 24 1 0 3 20 5 45 4 55 -2 80 -20 80 -11 0 -13 12 -9 53 3 28 9 63 14
77 13 39 40 156 46 197 2 20 7 50 10 67 3 17 8 60 10 96 3 36 5 70 6 76 2 17
45 14 65 -5 23 -21 53 -33 53 -21 0 5 -4 11 -9 15 -10 6 -50 104 -57 140 -16
79 -16 83 2 93 14 8 18 20 15 50 -3 44 12 82 32 82 11 1 53 64 86 131 7 14 28
43 47 64 l33 38 -31 39 c-39 49 -72 71 -95 64 -10 -4 -30 -26 -46 -49 -63 -97
-85 -120 -78 -83 1 5 -5 32 -14 60 -8 28 -17 67 -19 86 -2 19 -9 50 -15 68
-10 32 -6 62 8 62 3 0 6 62 7 138 1 125 4 168 21 302 3 25 5 54 4 65 -4 35 -2
69 15 175 3 19 7 62 9 95 8 107 17 165 26 165 5 0 9 7 9 16 0 19 32 66 76 113
18 18 50 67 71 107 21 41 59 97 85 124 39 41 58 71 63 100 3 16 51 110 56 110
4 0 17 29 30 65 12 36 27 65 31 65 5 0 7 4 3 9 -3 5 -1 12 5 16 5 3 10 15 10
26 0 10 4 19 10 19 5 0 7 6 5 13 -3 6 6 34 20 61 14 27 25 56 25 63 0 8 7 28
16 45 9 17 18 46 20 65 2 19 11 44 19 56 12 19 22 56 24 94 1 7 14 25 31 40
22 21 31 40 35 78 4 27 10 54 14 60 17 21 19 54 4 67 -13 10 -20 7 -42 -21
-14 -19 -60 -70 -101 -115 -78 -84 -163 -195 -196 -256 -10 -19 -25 -42 -32
-51 -15 -19 -72 -113 -110 -179 -14 -25 -28 -47 -31 -50 -3 -3 -6 -11 -7 -17
-1 -7 -2 -19 -2 -27 -3 -21 -83 -95 -111 -103 -23 -6 -45 -20 -79 -53 -9 -8
-18 -14 -21 -14 -12 3 -36 -10 -51 -26 -19 -21 -56 -33 -95 -32 -41 2 -120
-35 -136 -65 l-13 -24 -12 23 c-7 13 -12 67 -13 131 0 60 -4 114 -10 121 -5 6
-11 40 -13 76 -5 73 -19 106 -48 115 -97 31 -204 25 -275 -15 -35 -20 -35 -20
-35 0 0 11 -4 20 -9 20 -4 0 -7 11 -6 25 2 14 -1 27 -6 31 -5 3 -6 10 -3 16 4
6 1 13 -5 17 -6 4 -14 17 -16 29 -3 12 -8 32 -11 45 -3 12 -6 27 -6 33 -1 6
-14 18 -30 27 -18 10 -26 12 -22 4 4 -6 -14 9 -40 36 -26 26 -52 47 -57 47 -5
0 -9 9 -9 20 0 20 -41 45 -67 41 -7 -1 -23 7 -35 19 -12 11 -25 21 -30 21 -4
1 -11 2 -15 4 -5 1 -25 5 -46 9 -20 5 -40 12 -43 17 -3 5 -11 9 -17 9 -7 0 1
-11 17 -25 17 -14 31 -35 33 -47 2 -12 8 -25 12 -28 5 -3 11 -11 13 -19 2 -8
17 -27 33 -44 17 -16 30 -33 30 -37 0 -4 12 -20 28 -34 15 -14 27 -30 27 -36
0 -5 6 -10 14 -10 8 0 18 -5 22 -12 5 -7 3 -8 -6 -3 -9 5 -11 4 -6 -4 5 -8 12
-9 20 -2 8 7 15 2 24 -19 7 -16 21 -31 30 -34 9 -3 2 -4 -16 -2 -36 3 -40 -17
-5 -22 14 -2 23 -13 27 -34 5 -25 9 -29 18 -20 19 19 27 14 20 -10 -5 -21 -4
-22 11 -9 16 12 17 12 11 -5 -5 -18 -5 -18 10 0 14 18 16 18 16 2 0 -10 15
-24 39 -34 33 -15 38 -21 29 -36 -6 -10 -12 -80 -15 -155 -2 -75 -6 -145 -8
-156 -2 -11 -4 -24 -4 -30 -1 -5 -20 11 -43 37 -39 43 -98 72 -98 48 0 -15 18
-21 23 -8 3 8 6 6 6 -5 1 -10 6 -15 11 -12 6 3 10 1 10 -4 0 -16 -8 -14 -46 9
-18 12 -36 30 -39 41 -5 15 -10 17 -20 9 -10 -8 -18 -4 -34 16 -11 14 -37 34
-56 44 -37 19 -71 17 -58 -3 3 -6 1 -7 -6 -3 -6 4 -9 11 -6 16 3 4 -2 10 -10
13 -9 4 -12 1 -9 -8 5 -11 -2 -11 -43 1 -26 8 -49 18 -51 23 -2 5 -14 22 -27
37 -13 15 -22 31 -19 35 4 8 -3 18 -68 93 -15 17 -28 34 -28 37 0 3 -11 19
-25 35 -14 16 -25 33 -25 37 0 4 -10 18 -23 30 -12 12 -29 34 -36 49 -8 15
-21 36 -30 45 -9 10 -38 48 -64 85 -26 38 -63 80 -82 95 -19 16 -35 35 -35 44
0 54 -133 251 -159 235 -6 -4 -35 18 -69 53 -60 63 -67 68 -77 51z m1122 -722
c-3 -8 -6 -5 -6 6 -1 11 2 17 5 13 3 -3 4 -12 1 -19z m-342 -698 c3 -5 1 -10
-4 -10 -6 0 -11 5 -11 10 0 6 2 10 4 10 3 0 8 -4 11 -10z m788 -1964 c6 -14
-1 -26 -14 -26 -4 0 -7 9 -6 20 1 23 12 26 20 6z m1 -398 c-8 -134 -13 -174
-24 -203 -7 -16 -13 -55 -14 -85 0 -30 -4 -57 -8 -60 -4 -3 -14 -30 -21 -60
-12 -45 -16 -51 -24 -35 -6 11 -7 30 -2 49 4 17 10 49 14 71 3 22 8 51 10 65
7 44 17 174 17 215 -1 22 2 42 6 45 4 3 15 17 25 33 10 15 19 27 21 27 2 0 2
-28 0 -62z"/>
<path d="M2638 4795 c-3 -6 -1 -21 6 -34 11 -19 14 -21 19 -7 4 9 2 16 -3 16
-5 0 -10 8 -12 18 -2 9 -6 12 -10 7z"/>
</g>
</svg>
